<?xml version="1.0" encoding="utf-8"?>
<svg viewBox="0 0 500 500" xmlns="http://www.w3.org/2000/svg" xmlns:bx="https://boxy-svg.com">
  <rect x="151.437" y="244.316" width="29.601" height="158.73" style="fill: rgb(188, 38, 38);"/>
  <rect x="311.454" y="242.6" width="30.459" height="157.872" style="fill: rgb(188, 38, 38);"/>
  <rect x="45.474" y="270.485" width="26.169" height="113.256" style="fill: rgb(188, 38, 38);"/>
  <rect x="431.574" y="269.627" width="24.453" height="115.401" style="fill: rgb(188, 38, 38);"/>
  <rect x="174.603" y="162.377" width="148.434" height="18.018" style="fill: rgb(229, 171, 76);"/>
  <rect x="67.782" y="271.128" width="87.516" height="101.673" style="fill: rgb(255, 204, 114);"/>
  <rect x="339.125" y="268.769" width="92.664" height="104.676" style="fill: rgb(255, 204, 114);"/>
  <rect x="178.25" y="245.817" width="137.709" height="146.718" style="fill: rgb(255, 204, 114);"/>
  <rect x="63.843" y="716.926" width="14.841" height="90.066" style="fill: rgb(127, 28, 28);" transform="matrix(-0.005981, 0.999982, -0.999982, -0.005981, 874.083204, 311.656255)" bx:origin="0.16 0.38"/>
  <rect x="88.365" y="1099.464" width="20.542" height="138.123" style="fill: rgb(127, 28, 28);" transform="matrix(-0.005981, 0.999982, -0.999982, -0.005981, 1415.558859, 308.179112)" bx:origin="0.16 0.38"/>
  <rect x="70.882" y="737.313" width="16.478" height="92.627" style="fill: rgb(127, 28, 28);" transform="matrix(-0.005981, 0.999982, -0.999982, -0.005981, 1169.756853, 304.801976)" bx:origin="0.16 0.38"/>
  <path d="M 467.883 37.627 L 528.368 95.904 L 407.397 95.904 L 467.883 37.627 Z" style="fill: rgb(255, 217, 156);" transform="matrix(0.999987, 0.005108, -0.005108, 0.999987, -217.767185, 64.337754)" bx:shape="triangle 407.397 37.627 120.971 58.277 0.5 0 1@a1356117"/>
  <rect x="176.105" y="179.322" width="145.002" height="39.897" style="fill: rgb(255, 204, 114);"/>
  <ellipse style="fill: rgb(245, 190, 113);" cx="57.486" cy="342.342" rx="21.273" ry="7.936" transform="matrix(0.999817, 0.019151, -0.019151, 0.999817, 6.566671, 46.795743)"/>
  <ellipse style="fill: rgb(245, 190, 113);" cx="57.486" cy="342.342" rx="24.519" ry="9.376" transform="matrix(0.999817, 0.019151, -0.019151, 0.999817, 112.529932, 63.956048)"/>
  <ellipse style="fill: rgb(245, 190, 113);" cx="57.486" cy="342.342" rx="26.222" ry="10.052" transform="matrix(0.999817, 0.019151, -0.019151, 0.999817, 276.622593, 63.098012)"/>
  <ellipse style="fill: rgb(245, 190, 113);" cx="57.486" cy="342.342" rx="21.45" ry="7.355" transform="matrix(0.999817, 0.019151, -0.019151, 0.999817, 392.881781, 47.654294)"/>
  <path style="fill: rgb(216, 216, 216);"/>
  <rect x="49.979" y="245.817" width="108.966" height="25.311" style="fill: rgb(102, 20, 20);"/>
  <rect x="339.983" y="246.246" width="121.407" height="23.595" style="fill: rgb(102, 20, 20);"/>
  <path style="fill: rgb(102, 20, 20);" transform="matrix(0.711118, -0.303421, 0.274303, 0.638726, -182.267489, 66.725175)" d="M 212.8 386.8 A 35.282 35.282 0 1 1 183.2 332.318 L 183.2 367.6 Z" bx:shape="pie 183.2 367.6 0 35.282 122.969 360 1@c3ee7075"/>
  <path style="fill: rgb(102, 20, 20);" transform="matrix(-0.17566, -0.683411, 0.62107, -0.161188, 260.421879, 429.925147)" d="M 212.8 386.8 A 35.282 35.282 0 1 1 183.2 332.318 L 183.2 367.6 Z" bx:shape="pie 183.2 367.6 0 35.282 122.969 360 1@c3ee7075"/>
  <rect x="70.999" y="196.911" width="106.392" height="48.906" style="fill: rgb(255, 204, 114);"/>
  <path d="M 184.727 249.642 L 209.797 299.668 L 159.656 299.668 L 184.727 249.642 Z" style="fill: rgb(255, 204, 114);" transform="matrix(0.999995, -0.003002, 0.072949, 0.999786, -131.506228, -53.09641)" bx:shape="triangle 159.656 249.642 50.141 50.026 0.5 0 1@6749826c"/>
  <path style="fill: rgb(124, 25, 25);" transform="matrix(0.57033, 0, 0, 0.560561, -60.798032, 25.167838)" d="M 412.8 353.2 A 44.116 44.116 0 1 1 368.8 305.884 L 368.8 350 Z" bx:shape="pie 368.8 350 0 44.116 94.16 360 1@5de39b39"/>
  <rect x="320.249" y="197.769" width="115.83" height="48.906" style="fill: rgb(255, 204, 114);"/>
  <path d="M 184.727 247.385 L 209.797 296.959 L 159.656 296.959 L 184.727 247.385 Z" style="fill: rgb(255, 204, 114);" transform="matrix(0.999995, -0.003002, -0.084722, 1.000259, 271.83823, -49.88773)" bx:shape="triangle 159.656 247.385 50.141 49.574 0.5 0 1@df297736"/>
  <rect x="71.858" y="180.609" width="105.534" height="16.731" style="fill: rgb(102, 20, 20);"/>
  <rect x="321.107" y="181.682" width="114.972" height="16.731" style="fill: rgb(102, 20, 20);"/>
  <rect x="147.791" y="219.005" width="196.482" height="27.885" style="fill: rgb(124, 25, 25);"/>
  <path style="fill: rgb(124, 25, 25);" transform="matrix(0.000865, -0.522697, 0.490807, 0.000812, 153.733523, 616.991769)" d="M 808.8 384.4 A 47.227 47.227 0 1 1 761.6 338.773 L 761.6 386 Z" bx:shape="pie 761.6 386 0 47.227 88.059 360 1@62d19072"/>
  <rect x="102.053" y="40.089" width="85.961" height="26.441" style="fill: rgb(124, 25, 25);" transform="matrix(0.733131, -0.680087, 0.688228, 0.72558, 67.637399, 183.933047)"/>
  <rect x="121.512" y="42.335" width="102.352" height="27.923" style="fill: rgb(245, 245, 245);" transform="matrix(0.880875, -0.47335, 0.483131, 0.875619, 27.49844, 144.464693)"/>
  <path style="fill: rgb(124, 25, 25);" transform="matrix(0.384141, -0.179949, 0.21973, 0.449505, -44.034966, 54.780991)" d="M 412.8 353.2 A 44.116 44.116 0 1 1 368.8 305.884 L 368.8 350 Z" bx:shape="pie 368.8 350 0 44.116 94.16 360 1@5de39b39"/>
  <rect x="97.691" y="40.089" width="82.287" height="26.441" style="fill: rgb(124, 25, 25);" transform="matrix(-0.719597, -0.694392, 0.686401, -0.727308, 351.3523, 259.170567)"/>
  <rect x="121.512" y="42.335" width="102.352" height="27.923" style="fill: rgb(245, 245, 245);" transform="matrix(-0.868456, -0.495767, 0.486124, -0.873961, 420.116583, 250.644092)"/>
  <path style="fill: rgb(124, 25, 25);" transform="matrix(0.19538, -0.454329, 0.445639, 0.14968, 93.560396, 259.638248)" d="M 412.8 353.2 A 44.116 44.116 0 1 1 368.8 305.884 L 368.8 350 Z" bx:shape="pie 368.8 350 0 44.116 94.16 360 1@5de39b39"/>
  <rect x="150.15" y="245.817" width="29.601" height="158.73" style="fill: rgb(188, 38, 38);"/>
  <rect x="311.454" y="245.388" width="30.459" height="157.872" style="fill: rgb(188, 38, 38);"/>
  <ellipse style="fill: rgb(245, 190, 113);" cx="57.486" cy="342.342" rx="24.519" ry="9.376" transform="matrix(0.999817, 0.019151, -0.019151, 0.999817, 112.315393, 64.170381)"/>
  <ellipse style="fill: rgb(245, 190, 113);" cx="57.486" cy="342.342" rx="26.222" ry="10.052" transform="matrix(0.999817, 0.019151, -0.019151, 0.999817, 275.764561, 62.454396)"/>
  <rect x="83.012" y="299.013" width="51.48" height="48.477" style="fill: rgb(102, 20, 20);"/>
  <rect x="84.942" y="302.445" width="22.308" height="42.9" style="fill: rgb(127, 28, 28);"/>
  <rect x="109.395" y="302.445" width="22.737" height="42.9" style="fill: rgb(127, 28, 28);"/>
  <rect x="362.291" y="297.083" width="51.48" height="48.477" style="fill: rgb(102, 20, 20);"/>
  <rect x="388.674" y="299.871" width="22.737" height="42.9" style="fill: rgb(127, 28, 28);"/>
  <rect x="364.221" y="299.871" width="22.737" height="42.9" style="fill: rgb(127, 28, 28);"/>
  <rect x="210.854" y="291.291" width="67.353" height="102.96" style="fill: rgb(102, 20, 20);"/>
  <rect x="244.959" y="294.509" width="30.459" height="97.383" style="fill: rgb(127, 28, 28);"/>
  <rect x="213.642" y="294.938" width="29.601" height="97.383" style="fill: rgb(127, 28, 28);"/>
</svg>